<svg data-v-423bf9ae="" xmlns="http://www.w3.org/2000/svg" viewBox="0 0 361.3605060081475 163" class="iconAbove"><!----><!----><!----><g data-v-423bf9ae="" id="7c697de1-754d-4cee-aab9-cf5d33a3220a" fill="white" transform="matrix(4.535146895383164,0,0,4.535146895383164,3.6734694381013924,69.84807407006647)"><path d="M1.49 9.05Q1.22 8.78 1.22 8.39Q1.22 8.01 1.49 7.74Q1.76 7.47 2.14 7.47L2.14 7.47Q2.52 7.47 2.80 7.75Q3.07 8.02 3.07 8.39Q3.07 8.77 2.80 9.04Q2.52 9.32 2.14 9.32L2.14 9.32Q1.76 9.32 1.49 9.05ZM-0.03 11.64L-0.03 11.64L-0.25 11.33Q0.04 11.11 0.16 11.02Q0.28 10.93 0.58 10.73Q0.88 10.53 1.06 10.44Q1.25 10.35 1.51 10.27Q1.76 10.19 1.98 10.19L1.98 10.19Q2.28 10.19 2.47 10.28Q2.66 10.38 2.77 10.58Q2.87 10.77 2.92 11.07Q2.96 11.38 2.96 11.78Q2.97 12.18 2.96 12.69L2.96 12.69Q2.95 13.21 2.95 13.51L2.95 13.51Q2.95 15.96 2.88 16.71L2.88 16.71Q2.69 18.54-0.43 20.54L-0.43 20.54L-0.81 20.27Q-0.32 19.90 0.01 19.60Q0.35 19.30 0.69 18.90Q1.03 18.50 1.21 18.05Q1.39 17.60 1.43 17.09L1.43 17.09Q1.47 16.41 1.47 15.34L1.47 15.34Q1.47 14.98 1.48 14.46Q1.49 13.94 1.50 13.60Q1.50 13.25 1.50 12.84Q1.50 12.43 1.47 12.17Q1.44 11.91 1.37 11.67Q1.31 11.43 1.20 11.32Q1.09 11.21 0.94 11.21L0.94 11.21Q0.51 11.21-0.03 11.64ZM6.41 13.82L6.41 13.82Q6.41 14.13 6.45 14.48Q6.49 14.82 6.61 15.22Q6.73 15.63 6.90 15.94Q7.08 16.25 7.39 16.46Q7.70 16.67 8.09 16.67L8.09 16.67Q8.47 16.67 8.76 16.56Q9.05 16.45 9.25 16.29Q9.44 16.13 9.58 15.85Q9.71 15.57 9.79 15.31Q9.86 15.06 9.90 14.68Q9.94 14.29 9.95 14.02Q9.95 13.75 9.95 13.34L9.95 13.34Q9.95 12.86 9.87 12.44Q9.79 12.02 9.60 11.65Q9.42 11.28 9.07 11.06Q8.73 10.85 8.26 10.85L8.26 10.85Q7.83 10.85 7.50 11.04Q7.17 11.24 6.97 11.54Q6.77 11.84 6.64 12.25Q6.51 12.65 6.46 13.04Q6.41 13.42 6.41 13.82ZM4.61 13.83L4.61 13.83Q4.61 12.30 5.66 11.29Q6.71 10.29 8.34 10.29Q9.97 10.29 10.82 11.05L10.82 11.05Q11.76 11.91 11.76 13.25L11.76 13.25Q11.76 14.10 11.56 14.77Q11.36 15.45 11.02 15.91Q10.68 16.37 10.20 16.67Q9.71 16.97 9.16 17.11Q8.61 17.25 7.98 17.25L7.98 17.25Q6.36 17.25 5.61 16.57L5.61 16.57Q4.61 15.66 4.61 13.83ZM15.44 13.42L15.31 13.55L15.31 16.74L13.95 17.17L13.73 17.05Q13.77 15.79 13.77 12.01L13.77 12.01L13.77 9.53Q13.77 8.98 13.69 8.62L13.69 8.62Q13.62 8.31 13.38 8.22Q13.15 8.13 12.33 8.06L12.33 8.06L12.33 7.66L12.47 7.55L15.29 7.31L15.39 7.39Q15.39 7.40 15.33 9.67Q15.27 11.94 15.24 12.97L15.24 12.97L15.44 12.97Q15.79 12.69 17.04 11.54Q18.29 10.40 19.07 9.88L19.07 9.88L19.89 10.40L19.87 10.57Q17.77 11.69 16.42 12.72L16.42 12.72Q18.59 15.85 19.19 15.85L19.19 15.85Q19.45 15.85 19.66 15.73Q19.88 15.61 20.18 15.34L20.18 15.34L20.49 15.67Q20.19 16.02 19.94 16.28Q19.70 16.54 19.52 16.70Q19.35 16.85 19.23 16.95Q19.11 17.04 19.01 17.08Q18.90 17.12 18.86 17.13Q18.82 17.14 18.73 17.13Q18.65 17.12 18.63 17.12L18.63 17.12Q18.31 17.12 17.97 16.86Q17.62 16.60 17.29 16.15Q16.95 15.71 16.66 15.25Q16.36 14.79 16.01 14.26Q15.67 13.72 15.44 13.42L15.44 13.42ZM22.56 13.48L22.56 13.48Q23.24 13.26 24.19 12.98L24.19 12.98Q25.11 12.70 25.34 12.59Q25.57 12.48 25.57 12.27L25.57 12.27Q25.57 11.66 25.25 11.19Q24.92 10.72 24.29 10.72L24.29 10.72Q23.86 10.72 23.52 10.90Q23.17 11.09 22.97 11.37Q22.76 11.66 22.62 12.03Q22.48 12.40 22.43 12.74Q22.37 13.08 22.37 13.42L22.37 13.42Q22.37 13.49 22.48 13.49L22.48 13.49Q22.49 13.49 22.52 13.49Q22.54 13.48 22.56 13.48ZM26.58 15.62L26.79 15.67L26.94 15.94Q26.06 16.56 25.28 16.94Q24.51 17.32 23.73 17.32L23.73 17.32Q22.33 17.32 21.55 16.60L21.55 16.60Q20.70 15.81 20.70 14.23L20.70 14.23Q20.70 13.45 20.95 12.73Q21.19 12.00 21.66 11.43Q22.13 10.85 22.89 10.50Q23.66 10.16 24.62 10.16L24.62 10.16Q25.14 10.16 25.60 10.26Q26.05 10.37 26.44 10.60Q26.83 10.83 27.06 11.24Q27.29 11.65 27.29 12.20L27.29 12.20Q27.29 12.60 26.89 12.72L26.89 12.72Q26.84 12.72 22.37 14.11L22.37 14.11Q22.37 14.69 22.60 15.19Q22.83 15.70 23.32 16.03Q23.80 16.37 24.45 16.37L24.45 16.37Q25.35 16.37 26.58 15.62L26.58 15.62ZM32.66 11.13L32.66 11.13L31.64 12.16L31.43 12.11Q31.39 11.85 31.30 11.61Q31.21 11.37 31.05 11.16Q30.88 10.94 30.63 10.82Q30.38 10.69 30.06 10.69L30.06 10.69Q29.61 10.69 29.38 10.96Q29.15 11.22 29.15 11.70L29.15 11.70Q29.15 11.87 29.21 12.03Q29.28 12.20 29.36 12.32Q29.45 12.44 29.62 12.57Q29.78 12.71 29.90 12.79Q30.02 12.87 30.25 12.98Q30.47 13.10 30.57 13.15Q30.67 13.19 30.90 13.30L30.90 13.30Q31.44 13.54 31.74 13.71Q32.04 13.88 32.30 14.10Q32.55 14.31 32.65 14.56Q32.75 14.81 32.75 15.16L32.75 15.16Q32.75 15.68 32.47 16.11Q32.20 16.53 31.75 16.78Q31.29 17.04 30.77 17.17Q30.25 17.30 29.71 17.30L29.71 17.30Q28.14 17.30 27.29 16.37L27.29 16.37L28.17 15.05L28.38 15.06Q28.48 15.42 28.58 15.67Q28.69 15.93 28.88 16.21Q29.06 16.49 29.35 16.64Q29.63 16.78 30.02 16.78L30.02 16.78Q30.50 16.78 30.84 16.50Q31.18 16.21 31.18 15.76L31.18 15.76Q31.18 15.42 30.86 15.11L30.86 15.11Q30.70 14.97 30.39 14.80Q30.07 14.63 29.75 14.48Q29.42 14.33 29.06 14.13Q28.70 13.92 28.43 13.70Q28.16 13.47 27.98 13.15Q27.79 12.82 27.79 12.46L27.79 12.46Q27.79 11.88 28.02 11.43Q28.25 10.98 28.65 10.71Q29.04 10.45 29.53 10.31Q30.02 10.17 30.58 10.17L30.58 10.17Q31.32 10.17 31.85 10.37Q32.39 10.58 32.66 11.13ZM37.67 13.82L37.67 13.82Q37.67 14.13 37.71 14.48Q37.75 14.82 37.86 15.22Q37.98 15.63 38.16 15.94Q38.34 16.25 38.65 16.46Q38.96 16.67 39.35 16.67L39.35 16.67Q39.72 16.67 40.01 16.56Q40.30 16.45 40.50 16.29Q40.69 16.13 40.83 15.85Q40.97 15.57 41.04 15.31Q41.11 15.06 41.15 14.68Q41.19 14.29 41.20 14.02Q41.21 13.75 41.21 13.34L41.21 13.34Q41.21 12.86 41.13 12.44Q41.04 12.02 40.86 11.65Q40.67 11.28 40.33 11.06Q39.98 10.85 39.51 10.85L39.51 10.85Q39.09 10.85 38.76 11.04Q38.42 11.24 38.23 11.54Q38.03 11.84 37.90 12.25Q37.76 12.65 37.71 13.04Q37.67 13.42 37.67 13.82ZM35.86 13.83L35.86 13.83Q35.86 12.30 36.91 11.29Q37.97 10.29 39.59 10.29Q41.22 10.29 42.08 11.05L42.08 11.05Q43.01 11.91 43.01 13.25L43.01 13.25Q43.01 14.10 42.81 14.77Q42.62 15.45 42.27 15.91Q41.93 16.37 41.45 16.67Q40.97 16.97 40.42 17.11Q39.87 17.25 39.23 17.25L39.23 17.25Q37.61 17.25 36.87 16.57L36.87 16.57Q35.86 15.66 35.86 13.83ZM45.87 11.80L45.87 11.80Q45.87 13.29 45.90 14.85Q45.94 16.41 46.01 16.70L46.01 16.70L44.47 17.14L44.30 17.05Q44.40 13.62 44.40 12.95L44.40 12.95Q44.40 12.91 44.40 12.83L44.40 12.83Q44.40 12.54 44.40 12.40Q44.39 12.26 44.38 12.02Q44.37 11.79 44.33 11.67Q44.30 11.55 44.24 11.42Q44.19 11.29 44.09 11.23Q44.00 11.17 43.87 11.17L43.87 11.17Q43.78 11.17 43.68 11.20Q43.57 11.24 43.45 11.30Q43.33 11.37 43.24 11.42Q43.15 11.46 43.03 11.54Q42.91 11.61 42.89 11.63L42.89 11.63L42.64 11.29Q42.94 11.05 43.17 10.89Q43.39 10.72 43.71 10.52Q44.02 10.33 44.32 10.23Q44.63 10.13 44.90 10.13L44.90 10.13Q45.39 10.13 45.59 10.39Q45.79 10.66 45.83 11.09L45.83 11.09L45.99 11.16Q47.58 10.17 48.78 10.17L48.78 10.17Q49.20 10.17 49.48 10.32Q49.76 10.47 49.90 10.63Q50.05 10.80 50.11 11.24Q50.18 11.68 50.19 11.94Q50.20 12.20 50.20 12.86L50.20 12.86Q50.20 13.13 50.20 13.27L50.20 13.27Q50.20 13.48 50.17 13.98Q50.15 14.49 50.15 14.71L50.15 14.71Q50.15 15.09 50.18 15.30Q50.22 15.52 50.25 15.58Q50.29 15.65 50.37 15.72L50.37 15.72Q50.52 15.86 50.77 15.86L50.77 15.86Q51.19 15.86 51.71 15.50L51.71 15.50L51.87 15.50L52.03 15.73Q51.30 16.46 50.98 16.71L50.98 16.71Q50.31 17.23 49.80 17.23L49.80 17.23Q49.34 17.23 49.05 16.95L49.05 16.95Q48.96 16.87 48.90 16.77Q48.84 16.67 48.80 16.49Q48.77 16.32 48.75 16.17Q48.73 16.02 48.72 15.72Q48.71 15.42 48.72 15.20Q48.72 14.98 48.72 14.52Q48.73 14.06 48.73 13.73L48.73 13.73Q48.73 13.16 48.71 12.80Q48.70 12.44 48.61 11.99Q48.51 11.54 48.34 11.38L48.34 11.38Q48.11 11.16 47.56 11.16L47.56 11.16Q47.06 11.16 45.87 11.80ZM60.40 10.21L60.66 10.27Q60.61 11.01 60.61 11.69Q60.60 12.37 60.60 15.17L60.60 15.17Q60.60 16.72 60.39 17.58L60.39 17.58Q60.20 18.40 59.56 19.03Q58.93 19.67 58.08 20.01Q57.24 20.34 56.37 20.34L56.37 20.34Q55.77 20.34 55.14 20.06Q54.51 19.78 54.13 19.35L54.13 19.35L54.97 18.24L55.27 18.24Q56.06 19.64 57.00 19.64L57.00 19.64Q57.58 19.64 57.98 19.39Q58.38 19.13 58.59 18.66Q58.81 18.18 58.91 17.62Q59.00 17.07 59.01 16.33L59.01 16.33L58.88 16.28Q58.25 16.69 57.53 16.97Q56.81 17.25 56.23 17.25L56.23 17.25Q55.98 17.25 55.77 17.20Q55.56 17.15 55.41 17.08Q55.25 17.01 55.14 16.87Q55.02 16.73 54.95 16.61Q54.87 16.50 54.82 16.29Q54.76 16.08 54.74 15.94Q54.71 15.80 54.70 15.53Q54.69 15.27 54.68 15.13Q54.68 14.98 54.68 14.70L54.68 14.70Q54.68 14.65 54.68 14.63L54.68 14.63Q54.68 14.27 54.72 13.55Q54.76 12.82 54.76 12.47L54.76 12.47Q54.76 12.32 54.76 12.25Q54.76 12.19 54.75 12.03Q54.74 11.88 54.72 11.80Q54.70 11.72 54.65 11.59Q54.61 11.47 54.54 11.41Q54.48 11.35 54.38 11.30Q54.28 11.25 54.15 11.25L54.15 11.25Q53.83 11.25 53.33 11.68L53.33 11.68L53.08 11.33Q54.34 10.25 55.38 10.25L55.38 10.25Q55.74 10.25 56.01 10.49L56.01 10.49Q56.14 10.61 56.20 10.86Q56.26 11.11 56.26 11.72L56.26 11.72Q56.26 12.13 56.23 12.93Q56.19 13.74 56.19 14.18L56.19 14.18Q56.19 15.33 56.45 15.78Q56.71 16.24 57.46 16.24L57.46 16.24Q57.84 16.24 58.31 16.03Q58.78 15.83 59.04 15.65L59.04 15.65Q59.13 14.51 59.13 13.07L59.13 13.07Q59.13 11.72 59.00 10.71L59.00 10.71L60.40 10.21ZM64.03 13.82L64.03 13.82Q64.03 14.13 64.07 14.48Q64.11 14.82 64.22 15.22Q64.34 15.63 64.52 15.94Q64.70 16.25 65.01 16.46Q65.32 16.67 65.71 16.67L65.71 16.67Q66.08 16.67 66.37 16.56Q66.66 16.45 66.86 16.29Q67.05 16.13 67.19 15.85Q67.33 15.57 67.40 15.31Q67.47 15.06 67.51 14.68Q67.55 14.29 67.56 14.02Q67.57 13.75 67.57 13.34L67.57 13.34Q67.57 12.86 67.48 12.44Q67.40 12.02 67.22 11.65Q67.03 11.28 66.69 11.06Q66.34 10.85 65.87 10.85L65.87 10.85Q65.45 10.85 65.12 11.04Q64.78 11.24 64.59 11.54Q64.39 11.84 64.25 12.25Q64.12 12.65 64.07 13.04Q64.03 13.42 64.03 13.82ZM62.22 13.83L62.22 13.83Q62.22 12.30 63.27 11.29Q64.33 10.29 65.95 10.29Q67.58 10.29 68.43 11.05L68.43 11.05Q69.37 11.91 69.37 13.25L69.37 13.25Q69.37 14.10 69.17 14.77Q68.97 15.45 68.63 15.91Q68.29 16.37 67.81 16.67Q67.33 16.97 66.78 17.11Q66.23 17.25 65.59 17.25L65.59 17.25Q63.97 17.25 63.23 16.57L63.23 16.57Q62.22 15.66 62.22 13.83ZM75.56 10.57L75.56 10.57L77 10.09L77.16 10.23Q77.10 11.81 77.10 14.05L77.10 14.05Q77.10 14.10 77.09 14.31Q77.08 14.53 77.07 14.69Q77.07 14.85 77.09 15.08Q77.12 15.31 77.17 15.46Q77.23 15.61 77.36 15.72Q77.49 15.83 77.67 15.83L77.67 15.83Q77.96 15.83 78.62 15.44L78.62 15.44L78.76 15.44L78.87 15.72Q78.54 16.05 78.36 16.22Q78.18 16.39 77.84 16.67Q77.51 16.94 77.23 17.07Q76.95 17.20 76.69 17.20L76.69 17.20Q75.83 17.20 75.68 16.24L75.68 16.24L75.54 16.15Q75.45 16.21 75.13 16.38Q74.81 16.54 74.66 16.62Q74.50 16.70 74.22 16.83Q73.93 16.97 73.74 17.03Q73.55 17.09 73.33 17.14Q73.10 17.20 72.91 17.20L72.91 17.20Q72.04 17.20 71.55 16.74L71.55 16.74Q71.48 16.67 71.42 16.59Q71.35 16.52 71.31 16.41Q71.27 16.30 71.24 16.21Q71.21 16.12 71.19 15.96Q71.18 15.80 71.17 15.70Q71.16 15.59 71.15 15.38Q71.15 15.16 71.15 15.04Q71.15 14.92 71.15 14.65Q71.15 14.38 71.15 14.23L71.15 14.23Q71.15 14.07 71.16 13.76Q71.16 13.46 71.16 13.32L71.16 13.32Q71.16 13.20 71.17 12.97Q71.17 12.74 71.17 12.62Q71.17 12.50 71.17 12.30Q71.16 12.11 71.15 12.00Q71.13 11.89 71.11 11.74Q71.09 11.59 71.04 11.52Q71.00 11.44 70.94 11.36Q70.89 11.28 70.80 11.25Q70.72 11.21 70.62 11.21L70.62 11.21Q70.36 11.21 69.76 11.59L69.76 11.59L69.56 11.24Q69.91 10.98 70.09 10.86Q70.27 10.73 70.59 10.53Q70.92 10.33 71.20 10.24Q71.48 10.14 71.72 10.14L71.72 10.14Q72.04 10.14 72.26 10.25Q72.48 10.36 72.59 10.55Q72.70 10.75 72.74 10.97Q72.78 11.19 72.78 11.48L72.78 11.48Q72.78 11.73 72.73 12.60Q72.69 13.46 72.69 13.92Q72.69 14.39 72.71 14.71Q72.74 15.03 72.82 15.32Q72.91 15.62 73.05 15.79Q73.20 15.96 73.44 16.06Q73.68 16.17 74.03 16.17L74.03 16.17Q74.47 16.17 74.83 16.00Q75.20 15.83 75.63 15.50L75.63 15.50Q75.64 14.95 75.64 13.79L75.64 13.79Q75.64 12.11 75.56 10.57Z"></path></g><!----><g data-v-423bf9ae="" id="cf2049df-043a-4d2b-8a40-08a8bd1342dc" transform="matrix(1.3492851173021618,0,0,1.3492851173021618,113.9559531804521,-19.190376390088346)" stroke="none" fill="white"><switch><g><path d="M69.629 14.86c-10.491 0-19.938 6.257-23.508 15.57a.984.984 0 101.839.705c3.28-8.557 11.988-14.306 21.669-14.306 12.697 0 23.026 9.71 23.026 21.644 0 6.395-2.99 12.43-8.203 16.558a.984.984 0 00-.373.765c-.007.874-.035 4.679-.014 6.231-1.504-.825-5.751-3.148-5.751-3.148a.98.98 0 00-.791-.068 24.275 24.275 0 01-7.893 1.306c-12.629 0-22.915-9.605-23.025-21.451l.016-.039a.985.985 0 00-.309-1.154c-4.442-3.427-10.054-5.314-15.8-5.314-13.783 0-24.996 10.593-24.996 23.613 0 6.847 3.122 13.309 8.581 17.802.017 2.373.031 5.811.001 6.184-.061.641.206 1.24.696 1.561.248.163.53.243.828.243.311 0 .638-.088.959-.265.581-.322 4.563-2.5 5.816-3.185a26.286 26.286 0 008.116 1.273c11.639 0 21.904-7.781 24.408-18.501a.984.984 0 10-1.918-.448c-2.298 9.839-11.757 16.979-22.491 16.979-2.709 0-5.365-.439-7.892-1.306a.992.992 0 00-.792.068l-5.75 3.145c.02-1.554-.008-5.355-.014-6.229a.987.987 0 00-.374-.765c-5.213-4.127-8.204-10.162-8.204-16.557 0-11.934 10.329-21.644 23.026-21.644 5.111 0 10.102 1.611 14.124 4.549.115 12.927 11.284 23.409 24.994 23.409 2.782 0 5.51-.428 8.117-1.273 1.254.686 5.236 2.865 5.817 3.185.32.178.647.266.958.266.297 0 .579-.081.827-.243.49-.321.757-.919.697-1.558-.03-.375-.016-3.813 0-6.186 5.458-4.494 8.58-10.956 8.58-17.803-.001-13.02-11.214-23.613-24.997-23.613z"></path><path d="M69.678 25.181c-7.505 0-13.611 6.106-13.611 13.611 0 7.504 6.106 13.61 13.611 13.61 7.504 0 13.61-6.106 13.61-13.61 0-7.505-6.106-13.611-13.61-13.611zm0 26.236c-6.962 0-12.626-5.664-12.626-12.625 0-6.962 5.664-12.626 12.626-12.626s12.625 5.664 12.625 12.626c0 6.961-5.663 12.625-12.625 12.625z"></path><path d="M78.649 39.041a.492.492 0 00-.359-.155H61.066a.494.494 0 00-.492.522 9.043 9.043 0 001.012 3.641c.006.014.005.029.012.042.024.046.056.086.081.131.154.281.32.553.501.815.038.055.072.114.111.168.202.278.422.541.654.794.092.101.189.197.285.294.163.163.332.319.507.469.103.088.201.18.307.264.252.198.515.381.787.552.119.075.242.142.365.211.202.115.409.221.621.321.115.054.228.11.346.159.316.133.64.249.973.346.084.024.169.041.254.063a8.914 8.914 0 001.167.224c.368.046.741.077 1.121.077a9.047 9.047 0 001.433-.123 9.04 9.04 0 00.86-.179c.082-.021.166-.037.247-.061a8.88 8.88 0 00.979-.348c.113-.047.222-.101.332-.153.218-.102.431-.212.64-.33.117-.066.235-.131.349-.202.276-.173.543-.359.798-.56.1-.079.193-.166.29-.249.182-.156.357-.317.526-.487a9.223 9.223 0 00.934-1.085c.037-.052.07-.107.106-.16.182-.263.35-.537.504-.819.025-.046.057-.086.082-.133.007-.013.006-.029.012-.043a9.037 9.037 0 001.011-3.64.495.495 0 00-.132-.366zm-.898.83a8.047 8.047 0 01-.681 2.372c-2.17-.878-4.703-1.357-7.391-1.357-2.689 0-5.223.479-7.392 1.357a8.076 8.076 0 01-.682-2.373h16.146zm-1.191 3.317a8.184 8.184 0 01-.512.728c-.054.068-.115.131-.171.198a7.946 7.946 0 01-1.533 1.4 6.765 6.765 0 01-.865.53c-.177.093-.357.18-.541.26-.092.04-.181.084-.275.121a8.193 8.193 0 01-.832.277c-.08.022-.161.038-.242.057a8.522 8.522 0 01-1.912.236c-.318 0-.632-.025-.944-.061-.091-.011-.181-.025-.271-.038a8.026 8.026 0 01-.694-.136c-.082-.02-.165-.036-.246-.058a8.111 8.111 0 01-.828-.275c-.097-.038-.19-.083-.285-.125a8.533 8.533 0 01-.861-.437 8.046 8.046 0 01-.922-.637 7.649 7.649 0 01-1.147-1.109c-.057-.067-.119-.132-.174-.201a8.164 8.164 0 01-.513-.73c-.018-.028-.034-.057-.051-.086 2.029-.804 4.413-1.228 6.935-1.228 2.52 0 4.904.423 6.934 1.228-.015.026-.031.057-.05.086zM61.253 36.483a.57.57 0 00.757.275l3.593-1.69a.57.57 0 000-1.032l-3.593-1.69a.57.57 0 00-.482 1.032l2.497 1.174-2.497 1.174a.57.57 0 00-.275.757zM73.753 35.067l3.593 1.69a.57.57 0 00.482-1.032l-2.497-1.174 2.497-1.174a.57.57 0 00-.482-1.032l-3.593 1.69a.568.568 0 000 1.032z"></path><g clip-rule="evenodd"><path d="M30.231 43.387c-7.504 0-13.61 6.105-13.61 13.61 0 7.505 6.106 13.611 13.61 13.611 7.505 0 13.611-6.106 13.611-13.611-.001-7.505-6.107-13.61-13.611-13.61zm0 26.235c-6.962 0-12.625-5.664-12.625-12.626s5.664-12.625 12.625-12.625c6.962 0 12.626 5.663 12.626 12.625s-5.664 12.626-12.626 12.626z"></path><path d="M30.231 56.467c-2.35 0-4.261 2.521-4.261 5.618 0 3.099 1.911 5.619 4.261 5.619s4.262-2.521 4.262-5.619c-.001-3.098-1.913-5.618-4.262-5.618zm0 10.252c-1.806 0-3.276-2.079-3.276-4.634s1.47-4.633 3.276-4.633c1.807 0 3.277 2.078 3.277 4.633-.001 2.555-1.47 4.634-3.277 4.634zM35.036 48.347a1.852 1.852 0 011.232-.267c.415.054.813.246 1.109.569a.526.526 0 10.775-.713 2.883 2.883 0 00-1.752-.899 2.907 2.907 0 00-1.925.42.526.526 0 10.561.89zM37.253 51.034c-.445-.328-.942-.462-1.433-.384-1.26.2-2.057 1.702-1.816 3.421.138.982.611 1.857 1.265 2.341.362.268.758.406 1.157.406.092 0 .184-.007.275-.021 1.26-.2 2.058-1.703 1.816-3.422-.138-.982-.61-1.857-1.264-2.341zm-.706 4.789c-.286.047-.534-.086-.693-.203-.446-.33-.774-.961-.876-1.686-.16-1.142.295-2.201.995-2.312.286-.041.535.087.693.203.446.33.773.961.875 1.686.162 1.143-.294 2.202-.994 2.312zM24.641 50.65c-.491-.081-.988.055-1.433.384-.654.484-1.127 1.359-1.265 2.341-.242 1.719.556 3.222 1.816 3.422.091.014.183.021.275.021.4 0 .795-.138 1.157-.406.654-.484 1.127-1.359 1.265-2.341.243-1.718-.554-3.221-1.815-3.421zm.841 3.285c-.102.725-.429 1.356-.876 1.686-.159.117-.408.25-.693.203-.7-.111-1.155-1.169-.995-2.312.102-.725.429-1.355.875-1.686a.996.996 0 01.577-.212c.038 0 .076.002.116.009.702.111 1.157 1.169.996 2.312zM23.084 48.649a1.86 1.86 0 012.341-.302.526.526 0 10.561-.891 2.906 2.906 0 00-1.925-.42 2.875 2.875 0 00-1.752.899.526.526 0 00.775.714z"></path></g></g></switch></g><!----></svg>